<?xml version="1.0" encoding="utf-8"?>
<!-- Generator: Adobe Illustrator 22.0.1, SVG Export Plug-In . SVG Version: 6.00 Build 0)  -->
<svg version="1.1" xmlns="http://www.w3.org/2000/svg" xmlns:xlink="http://www.w3.org/1999/xlink" x="0px" y="0px"
	 viewBox="0 0 500 500" style="enable-background:new 0 0 500 500;" xml:space="preserve">
<style type="text/css">
	.st0{display:none;}
	.st1{display:inline;fill:#E4A147;}
	.st2{display:inline;}
	.st3{fill:#FFFFFF;}
	.st4{fill:#F7931E;}
	.st5{display:inline;fill:#FFFFFF;}
	.st6{display:inline;fill:none;stroke:#E4A147;stroke-width:3;stroke-miterlimit:10;}
	.st7{display:inline;fill:#4D4D4D;}
	.st8{display:inline;fill:#1A1A1A;}
	.st9{display:inline;fill:#F7931E;}
	.st10{font-family:'OldEnglishTextMT';}
	.st11{font-size:85.0954px;}
	.st12{fill:none;stroke:#E4A147;stroke-width:24;stroke-miterlimit:10;}
</style>
<g id="Camada_1" class="st0">
	<path class="st1" d="M264.1,353.5h-43.4c-2.4,0-4.3-3.4-4.3-7.6l-7.2-147.8h55V353.5z"/>
	<g class="st2">
		<path class="st3" d="M217.8,231.3c2.4,0.1,5,0.1,7.6,0.9c1.3,0.4,2.7,0.9,3.9,1.7c1.2,0.8,2.3,2,3.1,3.3c0.8,1.3,1.1,2.7,1.4,4
			c0.2,1.2,0.4,2.5,0.6,3.7c0.3,2.4,0.5,4.8,0.7,7.2c0.7,9.5,1,19,1.1,28.6l0.5,57l0,0l-2.5-56.9c-0.6-9.5-1.4-18.9-2.5-28.3
			c-0.3-2.3-0.6-4.7-1-7c-0.2-1.1-0.4-2.3-0.7-3.4c-0.3-1.1-0.6-1.9-1.1-2.7c-1-1.5-2.6-2.3-4.6-2.7c-2-0.4-4.2-0.4-6.5-0.3
			L217.8,231.3z"/>
	</g>
	<g class="st2">
		<path class="st4" d="M323,161.7c1.6,0.1,3.5,0,5.4,0.1c1,0.1,2,0.2,3,0.6c1,0.3,2,0.9,2.8,1.8c0.8,0.8,1.3,1.8,1.6,2.8
			c0.3,1,0.4,1.9,0.5,2.8c0.2,1.8,0.4,3.6,0.5,5.5c0.4,7.2,0.5,14.4,0.5,21.7c0,7.2-0.2,14.4-0.3,21.6l-0.4,21.6l-2.3,0l0.5-21.6
			c0.1-7.2,0.3-14.4,0.3-21.6c0-7.2-0.1-14.4-0.5-21.5c-0.1-1.8-0.2-3.6-0.5-5.3c-0.1-0.9-0.2-1.7-0.5-2.5c-0.2-0.7-0.6-1.4-1.1-1.8
			c-0.9-1-2.5-1.4-4.1-1.4c-1.7-0.1-3.4,0.2-5.4,0.3L323,161.7z"/>
	</g>
	<g class="st2">
		<path class="st4" d="M334.6,245.7c-2.7-0.2-4.3-0.3-5.7,0.7c-1.3,0.8-1.5,7.7-1.5,7.7l-0.6,7.7l12.8,0.6c0,0,0.7-5.9,0.9-7.8
			c0.2-1.9,0.8-6.3-0.7-7.7C338.4,245.7,334.6,245.7,334.6,245.7z"/>
	</g>
	<path class="st5" d="M261.9,235.4c-1.1,0-1.5,0-2.4,0c-0.9,0-1.8,0.1-2.6,0.2c-1.7,0.2-3.1,0.7-4,1.5c-0.2,0.2-0.5,0.4-0.7,0.7
		c-0.2,0.3-0.4,0.5-0.5,0.9c-0.1,0.2-0.1,0.3-0.2,0.5c0,0.1-0.1,0.2-0.1,0.2l-0.1,0.3c-0.1,0.4-0.2,0.8-0.3,1.3
		c-0.3,1.8-0.6,3.7-0.8,5.7c-0.4,3.9-0.6,7.8-0.8,11.7c-0.2,3.9-0.4,7.9-0.5,11.8c-0.1,2-0.1,3.9-0.2,5.9l0,1.5c0,0.5,0,1,0,1.5
		l-0.1,3l-0.4,11.8l-0.7,42.6l0-18.9l-0.7-23.6l-0.4-11.8l-0.1-3c0-0.5,0-1,0-1.5l-0.1-1.5c-0.1-2-0.1-3.9-0.2-5.9
		c-0.1-3.9-0.2-7.9-0.2-11.9c0-4,0-7.9,0.1-11.9c0.1-2,0.2-4,0.5-6.1c0.1-0.5,0.2-1.1,0.3-1.6l0.1-0.4c0-0.2,0.1-0.3,0.1-0.5
		c0.1-0.3,0.2-0.6,0.3-0.9c0.2-0.6,0.5-1.2,0.9-1.7c0.4-0.6,0.8-1.1,1.2-1.6c0.5-0.5,1-0.9,1.5-1.3c0.5-0.4,1.1-0.7,1.7-0.9
		c1.1-0.5,2.3-0.9,3.4-1.1c1.1-0.2,2.2-0.4,3.3-0.5c1-0.1,1.7-0.2,2.7-0.2V235.4z"/>
	<path class="st1" d="M319,198.1l-1.7,35l-0.6,11.6l-4.9,101.3c0,4.2-1.9,7.6-4.3,7.6h-43.4V198.1H319z"/>
	<line class="st6" x1="7.5" y1="246.9" x2="224.6" y2="246.9"/>
	<path class="st5" d="M261.9,235.4c1.1,0,1.5,0,2.4,0c0.9,0,1.8,0.1,2.6,0.2c1.7,0.2,3.1,0.7,4,1.5c0.2,0.2,0.5,0.4,0.7,0.7
		c0.2,0.3,0.4,0.5,0.5,0.9c0.1,0.2,0.1,0.3,0.2,0.5c0,0.1,0.1,0.2,0.1,0.2l0.1,0.3c0.1,0.4,0.2,0.8,0.3,1.3c0.3,1.8,0.6,3.7,0.8,5.7
		c0.4,3.9,0.6,7.8,0.8,11.7c0.2,3.9,0.4,7.9,0.5,11.8c0.1,2,0.1,3.9,0.2,5.9l0,1.5c0,0.5,0,1,0,1.5l0.1,3l0.4,11.8l0.7,23.6l0,18.9
		l0.7-42.6l0.4-11.8l0.1-3c0-0.5,0-1,0-1.5l0.1-1.5c0.1-2,0.1-3.9,0.2-5.9c0.1-3.9,0.2-7.9,0.2-11.9c0-4,0-7.9-0.1-11.9
		c-0.1-2-0.2-4-0.5-6.1c-0.1-0.5-0.2-1.1-0.3-1.6l-0.1-0.4c0-0.2-0.1-0.3-0.1-0.5c-0.1-0.3-0.2-0.6-0.3-0.9
		c-0.2-0.6-0.5-1.2-0.9-1.7c-0.4-0.6-0.8-1.1-1.2-1.6c-0.5-0.5-1-0.9-1.5-1.3c-0.5-0.4-1.1-0.7-1.7-0.9c-1.1-0.5-2.3-0.9-3.4-1.1
		c-1.1-0.2-2.2-0.4-3.3-0.5c-1-0.1-1.7-0.2-2.7-0.2V235.4z"/>
	<path class="st5" d="M305.3,235.4c-1.1,0-1.5,0-2.4,0c-0.9,0-1.8,0.1-2.6,0.2c-1.7,0.2-3.1,0.7-4,1.5c-0.2,0.2-0.5,0.4-0.7,0.7
		c-0.2,0.3-0.4,0.5-0.5,0.9c-0.1,0.2-0.1,0.3-0.2,0.5c0,0.1-0.1,0.2-0.1,0.2l-0.1,0.3c-0.1,0.4-0.2,0.8-0.3,1.3
		c-0.3,1.8-0.6,3.7-0.8,5.7c-0.4,3.9-0.6,7.8-0.8,11.7c-0.2,3.9-0.4,7.9-0.5,11.8c-0.1,2-0.1,3.9-0.2,5.9l0,1.5c0,0.5,0,1,0,1.5
		l-0.1,3l-0.4,11.8l-0.7,23.6l0,18.9l-0.7-42.6l-0.4-11.8l-0.1-3c0-0.5,0-1,0-1.5l-0.1-1.5c-0.1-2-0.1-3.9-0.2-5.9
		c-0.1-3.9-0.2-7.9-0.2-11.9c0-4,0-7.9,0.1-11.9c0.1-2,0.2-4,0.5-6.1c0.1-0.5,0.2-1.1,0.3-1.6l0.1-0.4c0-0.2,0.1-0.3,0.1-0.5
		c0.1-0.3,0.2-0.6,0.3-0.9c0.2-0.6,0.5-1.2,0.9-1.7c0.4-0.6,0.8-1.1,1.2-1.6c0.5-0.5,1-0.9,1.5-1.3c0.5-0.4,1.1-0.7,1.7-0.9
		c1.1-0.5,2.3-0.9,3.4-1.1c1.1-0.2,2.2-0.4,3.3-0.5c1-0.1,1.7-0.2,2.7-0.2V235.4z"/>
	<path class="st5" d="M317.3,233.1l-0.6,11.6c-0.1-1.2-0.3-2.5-0.5-3.6c-0.1-0.4-0.2-0.9-0.3-1.3l-0.1-0.3c0-0.1-0.1-0.2-0.1-0.2
		c-0.1-0.2-0.1-0.3-0.2-0.5c-0.1-0.3-0.3-0.6-0.5-0.9c-0.2-0.3-0.4-0.5-0.7-0.7c-1-0.8-2.4-1.3-4-1.5c-0.8-0.1-1.7-0.1-2.6-0.2
		c-0.9,0-1.3,0-2.4-0.1v-5.8c1,0,1.7,0.1,2.7,0.2c1.1,0.1,2.1,0.2,3.3,0.5c1.1,0.2,2.3,0.6,3.4,1.1c0.6,0.3,1.1,0.6,1.7,0.9
		C316.7,232.5,317,232.8,317.3,233.1z"/>
	
		<ellipse transform="matrix(0.7658 -0.6431 0.6431 0.7658 -80.3947 185.6548)" class="st5" cx="214.7" cy="203.2" rx="18.3" ry="11.1"/>
	
		<ellipse transform="matrix(3.566995e-02 -0.9994 0.9994 3.566995e-02 32.6153 425.4577)" class="st5" cx="236.8" cy="195.8" rx="11.1" ry="18.3"/>
	
		<ellipse transform="matrix(3.566995e-02 -0.9994 0.9994 3.566995e-02 25.3394 413.8542)" class="st5" cx="227.1" cy="193.8" rx="11.1" ry="18.3"/>
	
		<ellipse transform="matrix(3.566995e-02 -0.9994 0.9994 3.566995e-02 46.3167 454.3866)" class="st5" cx="258.6" cy="203.2" rx="11.1" ry="18.3"/>
	
		<ellipse transform="matrix(3.566995e-02 -0.9994 0.9994 3.566995e-02 74.0973 477.0814)" class="st5" cx="284.3" cy="200.1" rx="11.1" ry="18.3"/>
	
		<ellipse transform="matrix(3.566995e-02 -0.9994 0.9994 3.566995e-02 95.3325 503.1515)" class="st5" cx="308.4" cy="202.2" rx="11.1" ry="18.3"/>
	
		<ellipse transform="matrix(3.566995e-02 -0.9994 0.9994 3.566995e-02 45.1807 420.1945)" class="st5" cx="240.3" cy="186.7" rx="11.1" ry="18.3"/>
	
		<ellipse transform="matrix(3.566995e-02 -0.9994 0.9994 3.566995e-02 62.0743 437.5136)" class="st5" cx="257.7" cy="186.6" rx="11.1" ry="8.5"/>
	<ellipse transform="matrix(0.79 -0.6132 0.6132 0.79 -58.4391 205.1303)" class="st5" cx="270.2" cy="187.9" rx="11.1" ry="8.5"/>
	<ellipse transform="matrix(0.79 -0.6132 0.6132 0.79 -52.3701 214.9537)" class="st5" cx="287.6" cy="183.9" rx="17.9" ry="15.5"/>
	<ellipse transform="matrix(0.79 -0.6132 0.6132 0.79 -59.01 224.0141)" class="st5" cx="297.5" cy="198.1" rx="17.9" ry="15.5"/>
	
		<ellipse transform="matrix(0.9808 -0.1949 0.1949 0.9808 -33.1952 47.4246)" class="st5" cx="224.4" cy="192.4" rx="15.6" ry="11.1"/>
	
		<ellipse transform="matrix(0.7658 -0.6431 0.6431 0.7658 -92.6424 187.2781)" class="st5" cx="210.8" cy="220.8" rx="12.2" ry="11.1"/>
	
		<ellipse transform="matrix(0.7658 -0.6431 0.6431 0.7658 -98.678 186.9393)" class="st5" cx="207.3" cy="228.9" rx="10.6" ry="11.1"/>
	
		<ellipse transform="matrix(0.7658 -0.6431 0.6431 0.7658 -115.7037 194.4628)" class="st5" cx="209.1" cy="256.1" rx="7.1" ry="11.2"/>
	
		<ellipse transform="matrix(8.721282e-02 -0.9962 0.9962 8.721282e-02 -57.3312 445.5505)" class="st5" cx="214.5" cy="254.1" rx="34.7" ry="8.1"/>
	
		<ellipse transform="matrix(0.5646 -0.8254 0.8254 0.5646 -75.5532 281.8746)" class="st5" cx="229.4" cy="212.5" rx="18.8" ry="10.6"/>
	
		<ellipse transform="matrix(8.721282e-02 -0.9962 0.9962 8.721282e-02 -51.2362 428.2863)" class="st5" cx="208.1" cy="242.1" rx="16.7" ry="10.6"/>
	<ellipse transform="matrix(0.9364 -0.3509 0.3509 0.9364 -81.509 90.412)" class="st5" cx="208.7" cy="270.1" rx="8.3" ry="16.7"/>
	
		<ellipse transform="matrix(0.1456 -0.9893 0.9893 0.1456 -96.8886 456.9186)" class="st5" cx="216.1" cy="284.6" rx="16.7" ry="7.4"/>
	<ellipse transform="matrix(0.9777 -0.21 0.21 0.9777 -57.151 51.1083)" class="st5" cx="212" cy="294.6" rx="4" ry="16.7"/>
	<polygon class="st7" points="242.1,152.2 214.3,135.4 300.6,147.3 359.4,180.2 328.8,174.1 	"/>
	<path class="st8" d="M235.9,177.3l88.3,22.3l7.5-29.8c0,0-32-12.6-43.1-15.4c-11.1-2.8-45.2-6.8-45.2-6.8L235.9,177.3z"/>
	<g class="st2">
		<circle class="st4" cx="335.1" cy="242.1" r="4.3"/>
	</g>
	<line class="st6" x1="310.9" y1="339.7" x2="486" y2="339.7"/>
	<text transform="matrix(0.8371 0 0 1 13.4985 240.6338)" class="st9 st10 st11">Facul</text>
	<text transform="matrix(0.8371 0 0 1 328.1611 333.3486)" class="st9 st10 st11">Beer</text>
</g>
<g id="Camada_2">
	<path class="st12" d="M24,186.9c0,0,22.9,272.4,97.3,289.6C196,493.9,487,22,487,22"/>
</g>
</svg>
